<svg width="160" height="160" viewBox="0 0 160 160" fill="none" xmlns="http://www.w3.org/2000/svg">
<path d="M110.284 76.9562C110.284 70.3715 108.987 63.8512 106.467 57.7678C103.947 51.6843 100.254 46.1567 95.5975 41.5006C90.9414 36.8445 85.4138 33.1511 79.3303 30.6313C73.2468 28.1114 66.7266 26.8145 60.1419 26.8145C53.5571 26.8145 47.0369 28.1114 40.9534 30.6313C34.8699 33.1511 29.3423 36.8445 24.6862 41.5006C20.0301 46.1567 16.3367 51.6843 13.8168 57.7678C11.297 63.8512 10 70.3715 10 76.9562L30.3184 76.9117C30.3184 72.9953 31.0898 69.1616 32.5886 65.5433C34.0873 61.9249 36.2841 58.6372 39.0535 55.8679C41.8228 53.0985 45.1106 50.9017 48.7289 49.403C52.3473 47.9042 56.2254 47.1328 60.1419 47.1328C64.0583 47.1328 67.9365 47.9042 71.5548 49.403C75.1732 50.9017 78.4609 53.0985 81.2303 55.8679C83.9996 58.6372 86.1964 61.9249 87.6952 65.5433C89.1939 69.1616 89.9653 73.0397 89.9653 76.9562H110.284Z" fill="#007AFF"/>
<path d="M10 76.9562L30.3184 76.9117L30.0075 99.3284C29.9246 104.794 25.4704 109.181 20.0043 109.181C14.4791 109.181 10 104.702 10 99.1769L10 76.9562Z" fill="#007AFF"/>
<path d="M89.9291 76.9562H110.284V82.1689C110.284 87.7897 105.727 92.3462 100.106 92.3462C94.4857 92.3462 89.9291 87.7897 89.9291 82.1689V76.9562Z" fill="#007AFF"/>
<path d="M49.7162 83.8346C49.7162 90.4193 51.0132 97.0277 53.5331 103.111C56.0529 109.195 59.7464 114.722 64.4025 119.378C69.0586 124.034 74.5862 127.728 80.6697 130.248C86.7531 132.768 93.2734 134.064 99.8581 134.064C106.443 134.064 112.963 132.768 119.047 130.248C125.13 127.728 130.658 124.034 135.314 119.378C139.97 114.722 143.663 109.195 146.183 103.111C148.703 97.0277 150 90.5074 150 83.9227L129.682 83.9227C129.682 87.8392 128.91 91.7173 127.411 95.3357C125.913 98.954 123.716 102.242 120.947 105.011C118.177 107.78 114.889 109.977 111.271 111.476C107.653 112.975 103.775 113.746 99.8581 113.746C95.9416 113.746 92.0635 112.975 88.4452 111.476C84.8268 109.977 81.5391 107.78 78.7697 105.011C76.0004 102.242 73.8036 98.954 72.3048 95.3357C70.806 91.7173 70.0709 87.8392 70.0709 83.9227L49.7162 83.8346Z" fill="url(#paint0_linear_26_15)"/>
<path d="M150 83.9227L129.682 83.9227L129.993 61.506C130.075 56.0405 134.53 51.6533 139.996 51.6533C145.521 51.6533 150 56.1324 150 61.6576V83.9227Z" fill="url(#paint1_linear_26_15)"/>
<path d="M70.0709 83.9227L49.7162 83.8346V78.71C49.7162 73.0892 54.2728 68.5327 59.8936 68.5327C65.5143 68.5327 70.0709 73.0892 70.0709 78.71V83.9227Z" fill="url(#paint2_linear_26_15)"/>
<defs>
<linearGradient id="paint0_linear_26_15" x1="141.215" y1="57.0614" x2="118.702" y2="109.161" gradientUnits="userSpaceOnUse">
<stop stop-color="#000F1F"/>
<stop offset="1" stop-color="#007AFF"/>
</linearGradient>
<linearGradient id="paint1_linear_26_15" x1="141.215" y1="57.0614" x2="118.702" y2="109.161" gradientUnits="userSpaceOnUse">
<stop stop-color="#000F1F"/>
<stop offset="1" stop-color="#007AFF"/>
</linearGradient>
<linearGradient id="paint2_linear_26_15" x1="141.215" y1="57.0614" x2="118.702" y2="109.161" gradientUnits="userSpaceOnUse">
<stop stop-color="#000F1F"/>
<stop offset="1" stop-color="#007AFF"/>
</linearGradient>
</defs>
</svg>
