<svg width="152" height="56" viewBox="0 0 152 56" fill="none" xmlns="http://www.w3.org/2000/svg">
<path d="M46.176 37V14.6H54.464C56.256 14.6 57.7387 14.8987 58.912 15.496C60.0853 16.0933 60.96 16.9147 61.536 17.96C62.112 19.0053 62.4 20.1787 62.4 21.48C62.4 22.7173 62.1227 23.8587 61.568 24.904C61.0133 25.928 60.1493 26.76 58.976 27.4C57.8027 28.0187 56.2987 28.328 54.464 28.328H50.272V37H46.176ZM50.272 25H54.208C55.6373 25 56.6613 24.6907 57.28 24.072C57.92 23.432 58.24 22.568 58.24 21.48C58.24 20.3707 57.92 19.5067 57.28 18.888C56.6613 18.248 55.6373 17.928 54.208 17.928H50.272V25Z" fill="white"/>
<path d="M66.7655 18.664C66.0188 18.664 65.4002 18.44 64.9095 17.992C64.4402 17.544 64.2055 16.9787 64.2055 16.296C64.2055 15.6133 64.4402 15.0587 64.9095 14.632C65.4002 14.184 66.0188 13.96 66.7655 13.96C67.5122 13.96 68.1202 14.184 68.5895 14.632C69.0802 15.0587 69.3255 15.6133 69.3255 16.296C69.3255 16.9787 69.0802 17.544 68.5895 17.992C68.1202 18.44 67.5122 18.664 66.7655 18.664ZM64.7175 37V21.128H68.8135V37H64.7175Z" fill="white"/>
<path d="M70.6247 37L76.3848 29.064L70.6247 21.128H75.0088L79.0407 26.76L83.0407 21.128H87.4567L81.6647 29.064L87.4567 37H83.0407L79.0407 31.368L75.0088 37H70.6247Z" fill="white"/>
<path d="M95.9745 37.384C94.3745 37.384 92.9558 37.0427 91.7185 36.36C90.4812 35.6773 89.5105 34.7173 88.8065 33.48C88.1025 32.2427 87.7505 30.8133 87.7505 29.192C87.7505 27.5493 88.0918 26.088 88.7745 24.808C89.4785 23.528 90.4385 22.536 91.6545 21.832C92.8918 21.1067 94.3425 20.744 96.0065 20.744C97.5638 20.744 98.9398 21.0853 100.134 21.768C101.329 22.4507 102.257 23.3893 102.918 24.584C103.601 25.7573 103.942 27.0693 103.942 28.52C103.942 28.7547 103.932 29 103.91 29.256C103.91 29.512 103.9 29.7787 103.879 30.056H91.8145C91.8998 31.2933 92.3265 32.264 93.0945 32.968C93.8838 33.672 94.8332 34.024 95.9425 34.024C96.7745 34.024 97.4678 33.8427 98.0225 33.48C98.5985 33.096 99.0252 32.6053 99.3025 32.008H103.463C103.164 33.0107 102.662 33.928 101.958 34.76C101.276 35.5707 100.422 36.2107 99.3985 36.68C98.3958 37.1493 97.2545 37.384 95.9745 37.384ZM96.0065 24.072C95.0038 24.072 94.1185 24.36 93.3505 24.936C92.5825 25.4907 92.0918 26.344 91.8785 27.496H99.7825C99.7185 26.4507 99.3345 25.6187 98.6305 25C97.9265 24.3813 97.0518 24.072 96.0065 24.072Z" fill="white"/>
<path d="M106.427 37V13.96H110.523V37H106.427Z" fill="white"/>
<path d="M115.957 18.664C115.21 18.664 114.591 18.44 114.101 17.992C113.631 17.544 113.397 16.9787 113.397 16.296C113.397 15.6133 113.631 15.0587 114.101 14.632C114.591 14.184 115.21 13.96 115.957 13.96C116.703 13.96 117.311 14.184 117.781 14.632C118.271 15.0587 118.517 15.6133 118.517 16.296C118.517 16.9787 118.271 17.544 117.781 17.992C117.311 18.44 116.703 18.664 115.957 18.664ZM113.909 37V21.128H118.005V37H113.909Z" fill="white"/>
<path d="M120.296 37V33.704L128.392 24.52H120.392V21.128H133.064V24.424L124.84 33.608H133.224V37H120.296Z" fill="white"/>
<path d="M143.385 37.384C141.785 37.384 140.366 37.0427 139.128 36.36C137.891 35.6773 136.92 34.7173 136.216 33.48C135.512 32.2427 135.16 30.8133 135.16 29.192C135.16 27.5493 135.502 26.088 136.184 24.808C136.888 23.528 137.848 22.536 139.064 21.832C140.302 21.1067 141.753 20.744 143.417 20.744C144.974 20.744 146.35 21.0853 147.544 21.768C148.739 22.4507 149.667 23.3893 150.328 24.584C151.011 25.7573 151.352 27.0693 151.352 28.52C151.352 28.7547 151.342 29 151.32 29.256C151.32 29.512 151.31 29.7787 151.288 30.056H139.225C139.31 31.2933 139.737 32.264 140.505 32.968C141.294 33.672 142.243 34.024 143.352 34.024C144.184 34.024 144.878 33.8427 145.432 33.48C146.008 33.096 146.435 32.6053 146.712 32.008H150.872C150.574 33.0107 150.072 33.928 149.368 34.76C148.686 35.5707 147.833 36.2107 146.809 36.68C145.806 37.1493 144.665 37.384 143.385 37.384ZM143.417 24.072C142.414 24.072 141.528 24.36 140.76 24.936C139.992 25.4907 139.502 26.344 139.288 27.496H147.193C147.129 26.4507 146.744 25.6187 146.04 25C145.336 24.3813 144.462 24.072 143.417 24.072Z" fill="white"/>
<path d="M14.2266 0.2216C13.3442 -0.179739 12.4897 0.0543754 12.1727 0.2216L1.02853 6.66617C-0.15816 7.53059 0.305865 8.28696 0.686214 8.55709L15.1781 17.0414C15.2284 17.0708 15.2811 17.0962 15.3342 17.1198C16.6403 17.6987 17.0676 19.1053 17.1173 19.7483V37.0494C17.1173 37.1435 17.1268 37.2382 17.1524 37.3287C17.4849 38.5053 18.3236 38.3266 18.7147 38.0786C21.8336 36.2392 28.3528 32.3982 29.4786 31.7498C30.6044 31.1015 30.962 30.1162 31 29.7046V11.4899C31 10.5638 29.4025 8.75004 29.2504 8.9044C29.0983 9.05876 15.3296 0.723273 14.2266 0.2216Z" fill="#35B4F6"/>
<path d="M13.7322 21.2533C13.7322 19.6788 12.7179 19.8254 12.2108 20.0956L1.52298 26.3858C0.245009 27.1267 -0.0237703 28.2381 0.00158625 28.7012V47.3403C0.028982 48.1186 0.55175 48.8718 0.886997 49.2396C0.953889 49.3129 1.03365 49.3722 1.11901 49.4221L12.0206 55.7916C13.542 56.4708 13.7956 55.3285 13.7322 54.6725V21.2533Z" fill="#2F73F2"/>
</svg>
