<svg width="20" height="22" viewBox="0 0 20 22" fill="none" xmlns="http://www.w3.org/2000/svg">
<path d="M19.8738 9.27102L19.4002 10.4426C19.2506 10.8415 19.2506 11.2653 19.4002 11.6641L19.8738 12.8357C20.148 13.5337 19.9237 14.3314 19.3005 14.7801L18.2535 15.503C17.9045 15.7523 17.6802 16.1262 17.5805 16.5251L17.3561 17.7715C17.2065 18.5193 16.5833 19.0677 15.8355 19.0926L14.5642 19.1425C14.1404 19.1674 13.7415 19.3419 13.4424 19.6411L12.5699 20.5634C12.0464 21.1118 11.2238 21.2364 10.5757 20.8625L9.47886 20.2144C9.10494 19.99 8.68117 19.9402 8.25739 20.0399L7.01099 20.339C6.28808 20.5135 5.51532 20.1645 5.16632 19.4915L4.59298 18.3448C4.39356 17.9709 4.06949 17.6717 3.67064 17.5471L2.4741 17.1483C1.75119 16.899 1.30249 16.201 1.37727 15.4532L1.50191 14.1818C1.55177 13.7581 1.42713 13.3343 1.15292 13.0102L0.355224 12.0131C-0.118408 11.4148 -0.118408 10.5922 0.355224 9.99393L1.15292 8.99681C1.42713 8.67275 1.55177 8.24897 1.50191 7.82519L1.37727 6.55387C1.30249 5.80603 1.75119 5.10804 2.4741 4.85876L3.67064 4.45992C4.06949 4.33528 4.39356 4.03614 4.59298 3.66222L5.16632 2.51553C5.51532 1.84248 6.26316 1.49349 7.01099 1.66798L8.25739 1.96712C8.65624 2.06683 9.10494 2.01697 9.47886 1.79262L10.5757 1.1445C11.2238 0.770576 12.0464 0.870288 12.5699 1.44363L13.4424 2.36597C13.7415 2.6651 14.1404 2.86453 14.5642 2.86453L15.8355 2.91438C16.5833 2.93931 17.2315 3.48773 17.3561 4.23556L17.5805 5.48196C17.6552 5.90574 17.9045 6.27966 18.2535 6.50401L19.3005 7.22692C19.9237 7.77534 20.173 8.57303 19.8738 9.27102Z" fill="#67FA33"/>
<path d="M15.2626 19.0425C15.1379 19.0425 15.0133 19.0675 14.9136 19.0924L15.811 19.0425C15.9356 19.0425 16.0353 19.0176 16.16 18.9927L15.2626 19.0425Z" fill="black"/>
<path d="M6.03955 9.47036L9.15555 13.0351L15.5371 7.8999" fill="#67FA33"/>
<path d="M9.07852 14.9434C8.75622 14.9434 8.43392 14.8134 8.20371 14.5752L5.32605 11.4779C4.91166 11.0231 4.9577 10.3517 5.41813 9.94015C5.90158 9.55029 6.61524 9.5936 7.05264 10.0268L9.21665 12.3443L14.2583 8.53232C14.7418 8.16412 15.4784 8.22909 15.8698 8.70559C16.2612 9.18208 16.1921 9.85351 15.6856 10.2217L9.79218 14.7051C9.58499 14.8567 9.33175 14.9434 9.07852 14.9434Z" fill="#102D47"/>
</svg>
