<svg width="29" height="28" viewBox="0 0 29 28" fill="none" xmlns="http://www.w3.org/2000/svg">
<path d="M8.74518 8.18179H7.58155C6.96431 8.18179 6.37236 8.42699 5.93591 8.86344C5.49947 9.29988 5.25427 9.89183 5.25427 10.5091V20.9818C5.25427 21.599 5.49947 22.191 5.93591 22.6274C6.37236 23.0639 6.96431 23.3091 7.58155 23.3091H18.0543C18.6715 23.3091 19.2635 23.0639 19.6999 22.6274C20.1364 22.191 20.3815 21.599 20.3815 20.9818V19.8182" stroke="white" stroke-width="2.32727" stroke-linecap="round" stroke-linejoin="round"/>
<path d="M19.2178 5.85453L22.7088 9.34544M24.3204 7.69889C24.7787 7.2406 25.0361 6.61902 25.0361 5.97089C25.0361 5.32277 24.7787 4.70119 24.3204 4.24289C23.8621 3.7846 23.2405 3.52713 22.5924 3.52713C21.9443 3.52713 21.3227 3.7846 20.8644 4.24289L11.0724 14V17.4909H14.5633L24.3204 7.69889Z" stroke="white" stroke-width="2.32727" stroke-linecap="round" stroke-linejoin="round"/>
</svg>
