<svg width="24" height="24" viewBox="0 0 24 24" fill="none" xmlns="http://www.w3.org/2000/svg">
<path d="M18.0001 7.99999C18.7958 7.99999 19.5588 8.31606 20.1214 8.87867C20.6841 9.44128 21.0001 10.2043 21.0001 11C21.0001 11.7956 20.6841 12.5587 20.1214 13.1213C19.5588 13.6839 18.7958 14 18.0001 14M10.0001 7.99999V19C10.0001 19.2652 9.89477 19.5196 9.70723 19.7071C9.51969 19.8946 9.26534 20 9.00012 20H8.00012C7.73491 20 7.48055 19.8946 7.29302 19.7071C7.10548 19.5196 7.00012 19.2652 7.00012 19V14" stroke="white" stroke-width="2" stroke-linecap="round" stroke-linejoin="round"/>
<path d="M12 7.99999L16.524 4.22999C16.6555 4.1205 16.8154 4.05075 16.9851 4.0289C17.1548 4.00705 17.3271 4.03402 17.482 4.10664C17.6369 4.17927 17.7679 4.29454 17.8597 4.43894C17.9514 4.58335 18.0001 4.75091 18 4.92199V17.078C18.0001 17.2491 17.9514 17.4166 17.8597 17.561C17.7679 17.7055 17.6369 17.8207 17.482 17.8933C17.3271 17.966 17.1548 17.9929 16.9851 17.9711C16.8154 17.9492 16.6555 17.8795 16.524 17.77L12 14H4C3.73478 14 3.48043 13.8946 3.29289 13.7071C3.10536 13.5196 3 13.2652 3 13V8.99999C3 8.73478 3.10536 8.48042 3.29289 8.29289C3.48043 8.10535 3.73478 7.99999 4 7.99999H12Z" stroke="white" stroke-width="2" stroke-linecap="round" stroke-linejoin="round"/>
</svg>
