<svg width="24" height="26" viewBox="0 0 24 26" fill="none" xmlns="http://www.w3.org/2000/svg">
<path d="M11.5659 22.3196H8.22033C7.7133 22.3196 7.22705 22.1014 6.86853 21.713C6.51001 21.3246 6.30859 20.7978 6.30859 20.2485V5.75122C6.30859 5.20194 6.51001 4.67517 6.86853 4.28677C7.22705 3.89837 7.7133 3.68018 8.22033 3.68018H15.8673C16.3743 3.68018 16.8605 3.89837 17.2191 4.28677C17.5776 4.67517 17.779 5.20194 17.779 5.75122V14.0354M19.6907 22.3196L21.6025 20.2485L19.6907 18.1775M16.8231 18.1775L14.9114 20.2485L16.8231 22.3196M11.0879 4.7157H12.9997M12.0438 18.1775V18.1878" stroke="white" stroke-width="1.89451" stroke-linecap="round" stroke-linejoin="round"/>
</svg>
