<svg width="28" height="28" viewBox="0 0 28 28" fill="none" xmlns="http://www.w3.org/2000/svg">
<path d="M11.6731 3.75998C9.85279 4.18197 8.17856 5.08327 6.82404 6.37041C5.46953 7.65755 4.48404 9.28365 3.96982 11.08C3.45559 12.8764 3.43135 14.7777 3.89961 16.5866C4.36786 18.3955 5.31156 20.0462 6.63282 21.3675C7.95408 22.6888 9.60478 23.6325 11.4137 24.1007C13.2226 24.569 15.1239 24.5447 16.9203 24.0305C18.7167 23.5163 20.3428 22.5308 21.6299 21.1763C22.917 19.8218 23.8183 18.1475 24.2403 16.3273C24.2403 16.0186 24.1177 15.7227 23.8995 15.5044C23.6813 15.2862 23.3853 15.1636 23.0767 15.1636H15.164C14.5467 15.1636 13.9548 14.9184 13.5183 14.482C13.0819 14.0455 12.8367 13.4536 12.8367 12.8363V4.69089C12.8222 4.55303 12.7806 4.41941 12.7141 4.29778C12.6476 4.17615 12.5576 4.06893 12.4494 3.98234C12.3411 3.89574 12.2168 3.8315 12.0835 3.79333C11.9502 3.75516 11.8107 3.74383 11.6731 3.75998Z" stroke="white" stroke-width="2.32727" stroke-linecap="round" stroke-linejoin="round"/>
<path d="M17.491 4.10906C18.9685 4.62931 20.3104 5.47436 21.4181 6.58197C22.5257 7.68959 23.3707 9.03157 23.891 10.5091H18.6546C18.346 10.5091 18.05 10.3865 17.8318 10.1682C17.6136 9.95002 17.491 9.65404 17.491 9.34543V4.10906Z" stroke="white" stroke-width="2.32727" stroke-linecap="round" stroke-linejoin="round"/>
</svg>
