<svg width="33" height="32" viewBox="0 0 33 32" fill="none" xmlns="http://www.w3.org/2000/svg">
<path d="M11.4907 9.78669L2.98405 11.02L2.83339 11.0507C2.60531 11.1112 2.39738 11.2312 2.23084 11.3984C2.06431 11.5656 1.94513 11.774 1.88547 12.0023C1.82582 12.2306 1.82782 12.4707 1.89129 12.698C1.95476 12.9253 2.07741 13.1316 2.24672 13.296L8.40939 19.2947L6.95605 27.768L6.93872 27.9147C6.92476 28.1506 6.97374 28.386 7.08065 28.5967C7.18757 28.8074 7.34857 28.986 7.54717 29.114C7.74577 29.2421 7.97484 29.3151 8.21092 29.3255C8.447 29.3359 8.68161 29.2834 8.89072 29.1734L16.4987 25.1734L24.0894 29.1734L24.2227 29.2347C24.4428 29.3214 24.682 29.348 24.9157 29.3117C25.1495 29.2754 25.3694 29.1777 25.5528 29.0284C25.7363 28.8791 25.8768 28.6837 25.9598 28.4622C26.0429 28.2407 26.0655 28.0011 26.0254 27.768L24.5707 19.2947L30.7361 13.2947L30.8401 13.1814C30.9886 12.9984 31.086 12.7793 31.1224 12.5464C31.1587 12.3135 31.1326 12.0752 31.0468 11.8557C30.9611 11.6361 30.8186 11.4433 30.634 11.2967C30.4495 11.1501 30.2293 11.0551 29.9961 11.0214L21.4894 9.78669L17.6867 2.08002C17.5767 1.85673 17.4063 1.66871 17.195 1.53722C16.9836 1.40574 16.7397 1.33606 16.4907 1.33606C16.2418 1.33606 15.9978 1.40574 15.7865 1.53722C15.5751 1.66871 15.4048 1.85673 15.2947 2.08002L11.4907 9.78669Z" fill="url(#paint0_linear_455_107)"/>
<defs>
<linearGradient id="paint0_linear_455_107" x1="-5.00012" y1="29" x2="33.9999" y2="7" gradientUnits="userSpaceOnUse">
<stop stop-color="#547593"/>
<stop offset="0.77" stop-color="white"/>
</linearGradient>
</defs>
</svg>
