<svg width="43" height="42" viewBox="0 0 43 42" fill="none" xmlns="http://www.w3.org/2000/svg">
<path d="M23.5229 3.901L37.4725 14.0367C38.6795 14.9132 39.1838 16.4662 38.7229 17.8836L33.3942 34.2836C33.1694 34.9742 32.7319 35.5761 32.1443 36.0031C31.5568 36.4301 30.8493 36.6604 30.1229 36.661H12.8777C12.1514 36.6604 11.4439 36.4301 10.8563 36.0031C10.2688 35.5761 9.83127 34.9742 9.60641 34.2836L4.27771 17.8836C4.05364 17.1925 4.05392 16.4481 4.27852 15.7572C4.50312 15.0662 4.94052 14.464 5.52815 14.0367L19.4777 3.901C20.0658 3.47422 20.7737 3.24438 21.5003 3.24438C22.2269 3.24438 22.9349 3.47422 23.5229 3.901Z" stroke="url(#paint0_linear_455_114)" stroke-width="3.47826" stroke-linecap="round" stroke-linejoin="round"/>
<path d="M11.0652 36.1357V34.9131C11.0652 33.0682 11.7981 31.2987 13.1027 29.9941C14.4073 28.6895 16.1767 27.9566 18.0217 27.9566H24.9782C26.8232 27.9566 28.5926 28.6895 29.8972 29.9941C31.2018 31.2987 31.9348 33.0682 31.9348 34.9131V36.1427M21.5 22.7392C22.8837 22.7392 24.2108 22.1895 25.1892 21.2111C26.1677 20.2326 26.7174 18.9056 26.7174 17.5218C26.7174 16.1381 26.1677 14.811 25.1892 13.8326C24.2108 12.8541 22.8837 12.3044 21.5 12.3044C20.1162 12.3044 18.7892 12.8541 17.8107 13.8326C16.8323 14.811 16.2826 16.1381 16.2826 17.5218C16.2826 18.9056 16.8323 20.2326 17.8107 21.2111C18.7892 22.1895 20.1162 22.7392 21.5 22.7392Z" stroke="url(#paint1_linear_455_114)" stroke-width="3.47826" stroke-linecap="round" stroke-linejoin="round"/>
<defs>
<linearGradient id="paint0_linear_455_114" x1="4" y1="37" x2="39" y2="3" gradientUnits="userSpaceOnUse">
<stop stop-color="#547593"/>
<stop offset="0.72" stop-color="white"/>
</linearGradient>
<linearGradient id="paint1_linear_455_114" x1="1.99976" y1="38.5" x2="41.9998" y2="12" gradientUnits="userSpaceOnUse">
<stop stop-color="#547593"/>
<stop offset="0.705" stop-color="white"/>
</linearGradient>
</defs>
</svg>
